<svg width="19" height="20" viewBox="0 0 19 20" className="hover:stroke-red-500"  fill="none" xmlns="http://www.w3.org/2000/svg">
<path d="M6.20703 19.387C6.80603 19.498 7.00003 19.126 7.00003 18.81V16.576C3.66203 17.302 2.96703 15.16 2.96703 15.16C2.42103 13.773 1.63403 13.404 1.63403 13.404C0.545035 12.659 1.71703 12.675 1.71703 12.675C2.92203 12.759 3.55604 13.912 3.55604 13.912C4.62604 15.746 6.36304 15.216 7.04804 14.909C7.15504 14.134 7.46604 13.604 7.81004 13.305C5.14504 13 2.34303 11.971 2.34303 7.374C2.34303 6.063 2.81203 4.993 3.57903 4.153C3.45503 3.85 3.04403 2.629 3.69603 0.976999C3.69603 0.976999 4.70403 0.654999 6.99703 2.207C7.95403 1.941 8.98003 1.808 10 1.803C11.02 1.808 12.047 1.941 13.006 2.207C15.297 0.654999 16.303 0.976999 16.303 0.976999C16.956 2.63 16.545 3.851 16.421 4.153C17.191 4.993 17.656 6.064 17.656 7.374C17.656 11.983 14.849 12.998 12.177 13.295C12.607 13.667 13 14.397 13 15.517V18.81C13 19.129 13.192 19.504 13.801 19.386" stroke="#2C2C2C" stroke-width="0.9"/>
</svg>
